<svg xmlns="http://www.w3.org/2000/svg" width="700" height="520" viewBox="0 0 700 520" fill="none" aria-hidden="true">
  <defs>
    <linearGradient id="bg" x1="60" y1="40" x2="620" y2="470" gradientUnits="userSpaceOnUse">
      <stop stop-color="#232326"/>
      <stop offset="1" stop-color="#45454B"/>
    </linearGradient>
    <linearGradient id="accent" x1="160" y1="120" x2="560" y2="420" gradientUnits="userSpaceOnUse">
      <stop stop-color="#FF2E1F"/>
      <stop offset="1" stop-color="#FF7A6E"/>
    </linearGradient>
  </defs>
  <rect x="20" y="20" width="660" height="480" rx="34" fill="url(#bg)"/>
  <circle cx="560" cy="130" r="74" fill="#FF2E1F" fill-opacity="0.22"/>
  <circle cx="130" cy="420" r="56" fill="#FFF" fill-opacity="0.08"/>

  <rect x="90" y="90" width="520" height="340" rx="26" fill="#FFFFFF" fill-opacity="0.08" stroke="#FFFFFF" stroke-opacity="0.22"/>
  <rect x="128" y="128" width="210" height="150" rx="18" fill="url(#accent)" fill-opacity="0.85"/>
  <rect x="360" y="132" width="202" height="18" rx="9" fill="#FFF" fill-opacity="0.35"/>
  <rect x="360" y="162" width="168" height="14" rx="7" fill="#FFF" fill-opacity="0.2"/>
  <rect x="360" y="186" width="186" height="14" rx="7" fill="#FFF" fill-opacity="0.14"/>
  <rect x="128" y="302" width="434" height="18" rx="9" fill="#FFF" fill-opacity="0.2"/>
  <rect x="128" y="334" width="388" height="14" rx="7" fill="#FFF" fill-opacity="0.13"/>
  <rect x="128" y="358" width="262" height="14" rx="7" fill="#FFF" fill-opacity="0.13"/>
</svg>
